<svg width="499" height="108" viewBox="0 0 499 108" fill="none" xmlns="http://www.w3.org/2000/svg">
  <path fill-rule="evenodd" clip-rule="evenodd" d="M35.14 1H0.839996V3.52H9.1V103.48H1.4V106H42.98V103.48H35.14V1ZM83.3 73.1L78.5318 73.1018C67.9693 73.1544 60.1087 74.3904 54.95 76.81C49.6766 79.2833 47.04 83.8333 47.04 90.46C47.04 101.753 53.9466 107.4 67.76 107.4C72.4267 107.4 75.9733 106.56 78.4 104.88C80.8267 103.2 82.6467 100.587 83.86 97.04C85.54 103.947 91.9799 107.4 103.18 107.4C109.34 107.4 113.773 105.86 116.48 102.78C119.187 99.7 120.727 94.0534 121.1 85.84L119 85.7C118.44 95.3134 116.573 100.12 113.4 100.12C110.693 100.12 109.34 97.6934 109.34 92.84V64.42C109.34 54.3399 107.217 47.41 102.97 43.63C98.7233 39.85 91.0467 37.96 79.94 37.96L79.3577 37.9617C60.2391 38.0754 50.68 43.8147 50.68 55.18C50.68 62.9267 54.6933 66.8 62.72 66.8C66.2667 66.8 69.2066 65.7967 71.54 63.79C73.8733 61.7833 75.04 59.4033 75.04 56.65C75.04 53.8967 74.6667 51.54 73.92 49.58H70.42C69.86 47.9933 69.58 46.43 69.58 44.89C69.58 43.35 70.2567 42.1367 71.61 41.25C72.9633 40.3633 74.48 39.92 76.16 39.92C78.96 39.92 80.85 41.4366 81.83 44.47C82.81 47.5033 83.3 53.4533 83.3 62.32V73.1ZM73.64 88.08V90.32L73.6472 91.6805C73.6921 95.7623 73.9463 98.4355 74.41 99.7C74.9233 101.1 75.9033 101.8 77.35 101.8C78.7967 101.8 80.15 100.61 81.41 98.23C82.67 95.85 83.3 92.56 83.3 88.36V75.34H82.32C76.5333 75.34 73.64 79.5866 73.64 88.08ZM156.52 39.36H122.78V41.88H130.48V103.48H122.78V106H162.54V103.48H156.52V64.84C156.52 59.24 157.663 54.48 159.95 50.56C162.237 46.64 164.873 44.68 167.86 44.68C169.82 44.68 171.173 45.4967 171.92 47.13C172.667 48.7633 173.04 52.38 173.04 57.98V103.48H167.3V106H206.92V103.48H199.08V61.34C199.08 45.7533 191.847 37.96 177.38 37.96C171.127 37.96 166.46 39.2667 163.38 41.88C160.3 44.4933 158.013 47.9466 156.52 52.24V39.36ZM209.02 39.36H242.76V52.24C244.253 47.9466 246.54 44.4933 249.62 41.88C252.7 39.2667 257.367 37.96 263.62 37.96C278.087 37.96 285.32 45.7533 285.32 61.34V103.48H293.16V106H253.54V103.48H259.28V57.98C259.28 52.38 258.907 48.7633 258.16 47.13C257.413 45.4967 256.06 44.68 254.1 44.68C251.113 44.68 248.477 46.64 246.19 50.56C243.903 54.48 242.76 59.24 242.76 64.84V103.48H248.78V106H209.02V103.48H216.72V41.88H209.02V39.36ZM304.71 98.09C310.73 104.297 319.76 107.4 331.8 107.4C341.04 107.4 347.97 105.533 352.59 101.8C357.21 98.0667 360.407 92.84 362.18 86.12L359.66 85.7C356.3 97.2734 349.207 103.06 338.38 103.06C332.593 103.06 328.533 100.727 326.2 96.06C323.867 91.3933 322.7 84.4867 322.7 75.34V69.88H362.18C363.02 48.5999 352.847 37.96 331.66 37.96C321.207 37.96 312.597 40.9 305.83 46.78C299.063 52.66 295.68 61.1299 295.68 72.19C295.68 83.2501 298.69 91.8833 304.71 98.09ZM322.84 67.08H337.26V60.22C337.26 52.66 336.817 47.5033 335.93 44.75C335.043 41.9967 333.27 40.62 330.61 40.62C327.95 40.62 325.99 42.09 324.73 45.03C323.505 47.8883 322.875 52.7536 322.841 59.626L322.84 67.08ZM433.72 41.88L417.2 64.7L403.34 41.88H413.14V39.36H365.82V41.88H373.94L395.22 75.48L377.44 103.48H368.2V106H390.18V103.48H380.94L396.9 78.28L412.3 103.48H402.36V106H449.12V103.48H441.84L419.02 67.64L437.22 41.88H444.5V39.36H423.64V41.88H433.72Z" fill="#0833BE" />
  <path d="M422 1.99999L476.426 96.4847" stroke="#0833BE" stroke-width="2" stroke-linecap="square" />
</svg>